<?xml version="1.0" encoding="UTF-8"?>
<svg xmlns="http://www.w3.org/2000/svg" width="1600" height="900" viewBox="0 0 1600 900" role="img" aria-labelledby="title desc">
  <title id="title">Failure taxonomy by route</title>
  <desc id="desc">Diagnostic row-category hits are shown as route profiles over the route matrix. Categories can co-occur, so profiles show diagnostic burden rather than a partition of samples.</desc>
  <rect width="1600" height="900" fill="#ffffff"/>
  <text x="54" y="58" font-family="Arial, Helvetica, sans-serif" font-size="32" font-weight="700" fill="#111827" text-anchor="start">Failure taxonomy by route</text>
  <text x="54" y="92" font-family="Arial, Helvetica, sans-serif" font-size="19" font-weight="400" fill="#596273" text-anchor="start">Diagnostic categories are non-exclusive row hits over each route&apos;s rows.</text>
  <text x="1546" y="58" font-family="Arial, Helvetica, sans-serif" font-size="16" font-weight="400" fill="#596273" text-anchor="end">row-category hits</text>
  <line x1="150" y1="690" x2="1270" y2="690" stroke="#e5e9ef" stroke-width="1"/>
  <text x="132" y="696" font-family="Arial, Helvetica, sans-serif" font-size="15" font-weight="400" fill="#596273" text-anchor="end">0</text>
  <line x1="150" y1="560" x2="1270" y2="560" stroke="#e5e9ef" stroke-width="1"/>
  <text x="132" y="566" font-family="Arial, Helvetica, sans-serif" font-size="15" font-weight="400" fill="#596273" text-anchor="end">1</text>
  <line x1="150" y1="430" x2="1270" y2="430" stroke="#e5e9ef" stroke-width="1"/>
  <text x="132" y="436" font-family="Arial, Helvetica, sans-serif" font-size="15" font-weight="400" fill="#596273" text-anchor="end">2</text>
  <line x1="150" y1="300" x2="1270" y2="300" stroke="#e5e9ef" stroke-width="1"/>
  <text x="132" y="306" font-family="Arial, Helvetica, sans-serif" font-size="15" font-weight="400" fill="#596273" text-anchor="end">3</text>
  <line x1="150" y1="170" x2="1270" y2="170" stroke="#e5e9ef" stroke-width="1"/>
  <text x="132" y="176" font-family="Arial, Helvetica, sans-serif" font-size="15" font-weight="400" fill="#596273" text-anchor="end">4</text>
  <line x1="150" y1="170" x2="150" y2="690" stroke="#e5e9ef" stroke-width="1" stroke-dasharray="2 10"/>
  <line x1="150" y1="690" x2="150" y2="698" stroke="#c8d0da" stroke-width="2"/>
  <text x="150" y="724" font-family="Arial, Helvetica, sans-serif" font-size="16" font-weight="400" fill="#111827" text-anchor="middle">bridge</text>
  <line x1="430" y1="170" x2="430" y2="690" stroke="#e5e9ef" stroke-width="1" stroke-dasharray="2 10"/>
  <line x1="430" y1="690" x2="430" y2="698" stroke="#c8d0da" stroke-width="2"/>
  <text x="430" y="724" font-family="Arial, Helvetica, sans-serif" font-size="16" font-weight="400" fill="#111827" text-anchor="middle">grounding</text>
  <line x1="710" y1="170" x2="710" y2="690" stroke="#e5e9ef" stroke-width="1" stroke-dasharray="2 10"/>
  <line x1="710" y1="690" x2="710" y2="698" stroke="#c8d0da" stroke-width="2"/>
  <text x="710" y="724" font-family="Arial, Helvetica, sans-serif" font-size="16" font-weight="400" fill="#111827" text-anchor="middle">syntax</text>
  <line x1="990" y1="170" x2="990" y2="690" stroke="#e5e9ef" stroke-width="1" stroke-dasharray="2 10"/>
  <line x1="990" y1="690" x2="990" y2="698" stroke="#c8d0da" stroke-width="2"/>
  <text x="990" y="724" font-family="Arial, Helvetica, sans-serif" font-size="16" font-weight="400" fill="#111827" text-anchor="middle">unsupported schema</text>
  <line x1="1270" y1="170" x2="1270" y2="690" stroke="#e5e9ef" stroke-width="1" stroke-dasharray="2 10"/>
  <line x1="1270" y1="690" x2="1270" y2="698" stroke="#c8d0da" stroke-width="2"/>
  <text x="1270" y="724" font-family="Arial, Helvetica, sans-serif" font-size="16" font-weight="400" fill="#111827" text-anchor="middle">wrong verdict</text>
  <text x="64" y="150" font-family="Arial, Helvetica, sans-serif" font-size="16" font-weight="400" fill="#596273" text-anchor="start">row hits</text>
  <line x1="150" y1="170" x2="150" y2="690" stroke="#c8d0da" stroke-width="2"/>
  <line x1="150" y1="690" x2="1270" y2="690" stroke="#c8d0da" stroke-width="2"/>
  <line x1="150" y1="690" x2="430" y2="560" stroke="#b45c37" stroke-width="3"/>
  <line x1="430" y1="560" x2="710" y2="300" stroke="#b45c37" stroke-width="3"/>
  <line x1="710" y1="300" x2="990" y2="560" stroke="#b45c37" stroke-width="3"/>
  <line x1="990" y1="560" x2="1270" y2="690" stroke="#b45c37" stroke-width="3"/>
  <polygon points="150,684 156,690 150,696 144,690" fill="#b45c37" stroke="none"/>
  <text x="150" y="678" font-family="SFMono-Regular, Consolas, Liberation Mono, monospace" font-size="12" font-weight="700" fill="#b45c37" text-anchor="middle">0/4</text>
  <polygon points="430,554 436,560 430,566 424,560" fill="#b45c37" stroke="none"/>
  <text x="430" y="546" font-family="SFMono-Regular, Consolas, Liberation Mono, monospace" font-size="12" font-weight="700" fill="#b45c37" text-anchor="middle">1/4</text>
  <polygon points="710,294 716,300 710,306 704,300" fill="#b45c37" stroke="none"/>
  <text x="710" y="286" font-family="SFMono-Regular, Consolas, Liberation Mono, monospace" font-size="12" font-weight="700" fill="#b45c37" text-anchor="middle">3/4</text>
  <polygon points="990,554 996,560 990,566 984,560" fill="#b45c37" stroke="none"/>
  <text x="990" y="546" font-family="SFMono-Regular, Consolas, Liberation Mono, monospace" font-size="12" font-weight="700" fill="#b45c37" text-anchor="middle">1/4</text>
  <polygon points="1270,684 1276,690 1270,696 1264,690" fill="#b45c37" stroke="none"/>
  <text x="1270" y="678" font-family="SFMono-Regular, Consolas, Liberation Mono, monospace" font-size="12" font-weight="700" fill="#b45c37" text-anchor="middle">0/4</text>
  <line x1="150" y1="690" x2="430" y2="170" stroke="#1f6f8b" stroke-width="3" stroke-dasharray="9 6"/>
  <line x1="430" y1="170" x2="710" y2="690" stroke="#1f6f8b" stroke-width="3" stroke-dasharray="9 6"/>
  <line x1="710" y1="690" x2="990" y2="690" stroke="#1f6f8b" stroke-width="3" stroke-dasharray="9 6"/>
  <line x1="990" y1="690" x2="1270" y2="300" stroke="#1f6f8b" stroke-width="3" stroke-dasharray="9 6"/>
  <polygon points="150,684 156,690 150,696 144,690" fill="#1f6f8b" stroke="none"/>
  <text x="150" y="665" font-family="SFMono-Regular, Consolas, Liberation Mono, monospace" font-size="12" font-weight="700" fill="#1f6f8b" text-anchor="middle">0/4</text>
  <polygon points="430,164 436,170 430,176 424,170" fill="#1f6f8b" stroke="none"/>
  <text x="430" y="203" font-family="SFMono-Regular, Consolas, Liberation Mono, monospace" font-size="12" font-weight="700" fill="#1f6f8b" text-anchor="middle">4/4</text>
  <polygon points="710,684 716,690 710,696 704,690" fill="#1f6f8b" stroke="none"/>
  <text x="710" y="665" font-family="SFMono-Regular, Consolas, Liberation Mono, monospace" font-size="12" font-weight="700" fill="#1f6f8b" text-anchor="middle">0/4</text>
  <polygon points="990,684 996,690 990,696 984,690" fill="#1f6f8b" stroke="none"/>
  <text x="990" y="665" font-family="SFMono-Regular, Consolas, Liberation Mono, monospace" font-size="12" font-weight="700" fill="#1f6f8b" text-anchor="middle">0/4</text>
  <polygon points="1270,294 1276,300 1270,306 1264,300" fill="#1f6f8b" stroke="none"/>
  <text x="1270" y="322" font-family="SFMono-Regular, Consolas, Liberation Mono, monospace" font-size="12" font-weight="700" fill="#1f6f8b" text-anchor="middle">3/4</text>
  <line x1="150" y1="170" x2="430" y2="170" stroke="#2f6b4f" stroke-width="3" stroke-dasharray="3 5"/>
  <line x1="430" y1="170" x2="710" y2="690" stroke="#2f6b4f" stroke-width="3" stroke-dasharray="3 5"/>
  <line x1="710" y1="690" x2="990" y2="690" stroke="#2f6b4f" stroke-width="3" stroke-dasharray="3 5"/>
  <line x1="990" y1="690" x2="1270" y2="300" stroke="#2f6b4f" stroke-width="3" stroke-dasharray="3 5"/>
  <polygon points="150,164 156,170 150,176 144,170" fill="#2f6b4f" stroke="none"/>
  <text x="150" y="216" font-family="SFMono-Regular, Consolas, Liberation Mono, monospace" font-size="12" font-weight="700" fill="#2f6b4f" text-anchor="middle">4/4</text>
  <polygon points="430,164 436,170 430,176 424,170" fill="#2f6b4f" stroke="none"/>
  <text x="430" y="216" font-family="SFMono-Regular, Consolas, Liberation Mono, monospace" font-size="12" font-weight="700" fill="#2f6b4f" text-anchor="middle">4/4</text>
  <polygon points="710,684 716,690 710,696 704,690" fill="#2f6b4f" stroke="none"/>
  <text x="710" y="652" font-family="SFMono-Regular, Consolas, Liberation Mono, monospace" font-size="12" font-weight="700" fill="#2f6b4f" text-anchor="middle">0/4</text>
  <polygon points="990,684 996,690 990,696 984,690" fill="#2f6b4f" stroke="none"/>
  <text x="990" y="652" font-family="SFMono-Regular, Consolas, Liberation Mono, monospace" font-size="12" font-weight="700" fill="#2f6b4f" text-anchor="middle">0/4</text>
  <polygon points="1270,294 1276,300 1270,306 1264,300" fill="#2f6b4f" stroke="none"/>
  <text x="1270" y="274" font-family="SFMono-Regular, Consolas, Liberation Mono, monospace" font-size="12" font-weight="700" fill="#2f6b4f" text-anchor="middle">3/4</text>
  <line x1="150" y1="170" x2="430" y2="170" stroke="#355c9a" stroke-width="3" stroke-dasharray="11 4 3 4"/>
  <line x1="430" y1="170" x2="710" y2="690" stroke="#355c9a" stroke-width="3" stroke-dasharray="11 4 3 4"/>
  <line x1="710" y1="690" x2="990" y2="690" stroke="#355c9a" stroke-width="3" stroke-dasharray="11 4 3 4"/>
  <line x1="990" y1="690" x2="1270" y2="560" stroke="#355c9a" stroke-width="3" stroke-dasharray="11 4 3 4"/>
  <polygon points="150,164 156,170 150,176 144,170" fill="#355c9a" stroke="none"/>
  <text x="150" y="229" font-family="SFMono-Regular, Consolas, Liberation Mono, monospace" font-size="12" font-weight="700" fill="#355c9a" text-anchor="middle">4/4</text>
  <polygon points="430,164 436,170 430,176 424,170" fill="#355c9a" stroke="none"/>
  <text x="430" y="229" font-family="SFMono-Regular, Consolas, Liberation Mono, monospace" font-size="12" font-weight="700" fill="#355c9a" text-anchor="middle">4/4</text>
  <polygon points="710,684 716,690 710,696 704,690" fill="#355c9a" stroke="none"/>
  <text x="710" y="639" font-family="SFMono-Regular, Consolas, Liberation Mono, monospace" font-size="12" font-weight="700" fill="#355c9a" text-anchor="middle">0/4</text>
  <polygon points="990,684 996,690 990,696 984,690" fill="#355c9a" stroke="none"/>
  <text x="990" y="639" font-family="SFMono-Regular, Consolas, Liberation Mono, monospace" font-size="12" font-weight="700" fill="#355c9a" text-anchor="middle">0/4</text>
  <polygon points="1270,554 1276,560 1270,566 1264,560" fill="#355c9a" stroke="none"/>
  <text x="1270" y="594" font-family="SFMono-Regular, Consolas, Liberation Mono, monospace" font-size="12" font-weight="700" fill="#355c9a" text-anchor="middle">1/4</text>
  <line x1="150" y1="170" x2="430" y2="170" stroke="#6f4b8b" stroke-width="3" stroke-dasharray="2 4 2 7"/>
  <line x1="430" y1="170" x2="710" y2="690" stroke="#6f4b8b" stroke-width="3" stroke-dasharray="2 4 2 7"/>
  <line x1="710" y1="690" x2="990" y2="690" stroke="#6f4b8b" stroke-width="3" stroke-dasharray="2 4 2 7"/>
  <line x1="990" y1="690" x2="1270" y2="300" stroke="#6f4b8b" stroke-width="3" stroke-dasharray="2 4 2 7"/>
  <polygon points="150,164 156,170 150,176 144,170" fill="#6f4b8b" stroke="none"/>
  <text x="150" y="242" font-family="SFMono-Regular, Consolas, Liberation Mono, monospace" font-size="12" font-weight="700" fill="#6f4b8b" text-anchor="middle">4/4</text>
  <polygon points="430,164 436,170 430,176 424,170" fill="#6f4b8b" stroke="none"/>
  <text x="430" y="242" font-family="SFMono-Regular, Consolas, Liberation Mono, monospace" font-size="12" font-weight="700" fill="#6f4b8b" text-anchor="middle">4/4</text>
  <polygon points="710,684 716,690 710,696 704,690" fill="#6f4b8b" stroke="none"/>
  <text x="710" y="626" font-family="SFMono-Regular, Consolas, Liberation Mono, monospace" font-size="12" font-weight="700" fill="#6f4b8b" text-anchor="middle">0/4</text>
  <polygon points="990,684 996,690 990,696 984,690" fill="#6f4b8b" stroke="none"/>
  <text x="990" y="626" font-family="SFMono-Regular, Consolas, Liberation Mono, monospace" font-size="12" font-weight="700" fill="#6f4b8b" text-anchor="middle">0/4</text>
  <polygon points="1270,294 1276,300 1270,306 1264,300" fill="#6f4b8b" stroke="none"/>
  <text x="1270" y="262" font-family="SFMono-Regular, Consolas, Liberation Mono, monospace" font-size="12" font-weight="700" fill="#6f4b8b" text-anchor="middle">3/4</text>
  <rect x="1330" y="178" width="105" height="27" rx="12" fill="#fbfcfd" stroke="#b45c37" stroke-width="1"/>
  <text x="1342" y="196" font-family="Arial, Helvetica, sans-serif" font-size="15" font-weight="700" fill="#b45c37" text-anchor="start">direct_smt</text>
  <rect x="1330" y="220" width="96.9" height="27" rx="12" fill="#fbfcfd" stroke="#1f6f8b" stroke-width="1"/>
  <text x="1342" y="238" font-family="Arial, Helvetica, sans-serif" font-size="15" font-weight="700" fill="#1f6f8b" text-anchor="start">single_ir</text>
  <rect x="1330" y="262" width="105" height="27" rx="12" fill="#fbfcfd" stroke="#2f6b4f" stroke-width="1"/>
  <text x="1342" y="280" font-family="Arial, Helvetica, sans-serif" font-size="15" font-weight="700" fill="#2f6b4f" text-anchor="start">stacked_ir</text>
  <rect x="1330" y="304" width="121.2" height="27" rx="12" fill="#fbfcfd" stroke="#355c9a" stroke-width="1"/>
  <text x="1342" y="322" font-family="Arial, Helvetica, sans-serif" font-size="15" font-weight="700" fill="#355c9a" text-anchor="start">ir_hop_chain</text>
  <rect x="1330" y="346" width="113.1" height="27" rx="12" fill="#fbfcfd" stroke="#6f4b8b" stroke-width="1"/>
  <text x="1342" y="364" font-family="Arial, Helvetica, sans-serif" font-size="15" font-weight="700" fill="#6f4b8b" text-anchor="start">ckc_layered</text>
  <rect x="1310" y="412" width="230" height="348" rx="8" fill="#fbfcfd" stroke="#e5e9ef" stroke-width="2"/>
  <text x="1330" y="450" font-family="Arial, Helvetica, sans-serif" font-size="21" font-weight="700" fill="#111827" text-anchor="start">Residual audit</text>
  <text x="1330" y="484" font-family="Arial, Helvetica, sans-serif" font-size="16" font-weight="400" fill="#596273" text-anchor="start">Direct SMT: 4/4 rows</text>
  <text x="1330" y="506" font-family="Arial, Helvetica, sans-serif" font-size="16" font-weight="400" fill="#596273" text-anchor="start">lacked named</text>
  <text x="1330" y="528" font-family="Arial, Helvetica, sans-serif" font-size="16" font-weight="400" fill="#596273" text-anchor="start">assertions; exact</text>
  <text x="1330" y="550" font-family="Arial, Helvetica, sans-serif" font-size="16" font-weight="400" fill="#596273" text-anchor="start">template matches</text>
  <text x="1330" y="572" font-family="Arial, Helvetica, sans-serif" font-size="16" font-weight="400" fill="#596273" text-anchor="start">0/4.</text>
  <line x1="54" y1="844" x2="1546" y2="844" stroke="#e5e9ef" stroke-width="1"/>
  <text x="54" y="868" font-family="Arial, Helvetica, sans-serif" font-size="15" font-weight="400" fill="#596273" text-anchor="start">Counts come from route_evaluation.route_category_counts. Categories can co-occur in one row, so route profiles are diagnostic burden rather than a partition of samples.</text>
</svg>
